<?xml version="1.0" encoding="UTF-8" standalone="no"?>
<svg
   xmlns:dc="http://purl.org/dc/elements/1.1/"
   xmlns:cc="http://creativecommons.org/ns#"
   xmlns:rdf="http://www.w3.org/1999/02/22-rdf-syntax-ns#"
   xmlns:svg="http://www.w3.org/2000/svg"
   xmlns="http://www.w3.org/2000/svg"
   xmlns:sodipodi="http://sodipodi.sourceforge.net/DTD/sodipodi-0.dtd"
   xmlns:inkscape="http://www.inkscape.org/namespaces/inkscape"
   inkscape:version="1.0 (4035a4fb49, 2020-05-01)"
   height="643.77417"
   width="1652.55"
   sodipodi:docname="quibi logo 2.svg"
   version="1.1"
   viewBox="0 0 1652.5501 643.77415"
   data-name="Q Loop V1"
   id="Q_Loop_V1">
  <metadata
     id="metadata51">
    <rdf:RDF>
      <cc:Work
         rdf:about="">
        <dc:format>image/svg+xml</dc:format>
        <dc:type
           rdf:resource="http://purl.org/dc/dcmitype/StillImage" />
        <dc:title>quibi-logo</dc:title>
      </cc:Work>
    </rdf:RDF>
  </metadata>
  <sodipodi:namedview
     inkscape:current-layer="Q_Loop_V1"
     inkscape:window-maximized="1"
     inkscape:window-y="176"
     inkscape:window-x="-8"
     inkscape:cy="229.5468"
     inkscape:cx="677.49751"
     inkscape:zoom="0.41630296"
     showgrid="false"
     id="namedview49"
     inkscape:window-height="1017"
     inkscape:window-width="1920"
     inkscape:pageshadow="2"
     inkscape:pageopacity="0"
     guidetolerance="10"
     gridtolerance="10"
     objecttolerance="10"
     borderopacity="1"
     bordercolor="#666666"
     pagecolor="#ffffff" />
  <defs
     id="defs31">
    <style
       id="style2">.cls-1{fill:none;}.cls-2{fill:#fff;}.cls-3{clip-path:url(#clip-path);}.cls-4{clip-path:url(#clip-path-2);}.cls-5{opacity:0.22;fill:url(#linear-gradient);}.cls-6{clip-path:url(#clip-path-3);}.cls-7{opacity:0.4;fill:url(#linear-gradient-2);}</style>
    <clipPath
       transform="translate(0 9)"
       id="clip-path">
      <path
         id="path4"
         d="M 1058.73,670.49 A 203.74,203.74 0 0 0 1006,634.58 C 1058.5,421.23 968.13,190.03 769,72.93 526.12,-70 213.33,11.13 70.43,254.07 -72.47,497.01 9.11,809 251.58,952.71 c 167.19,99.08 381.76,88.61 515.07,1.47 4,4.52 8.22,8.92 12.71,13.14 82,77.15 210.95,73.24 288.1,-8.73 77.15,-81.97 73.24,-210.95 -8.73,-288.1 z M 682.05,613.83 A 199,199 0 0 1 409.31,684.55 C 314.46,628.76 282.8,506.65 338.59,411.81 394.38,316.97 516.49,285.3 611.33,341.09 706.17,396.88 737.84,519 682.05,613.83 Z"
         class="cls-1" />
    </clipPath>
    <clipPath
       transform="translate(0 9)"
       id="clip-path-2">
      <path
         id="path7"
         d="M 1029.66,472.46 A 523.09,523.09 0 0 0 954.37,240.34 520.56,520.56 0 0 0 510.8,-8.15 h -0.5 V 324.1 h 0.21 a 187.74,187.74 0 0 1 95.49,26.08 189.9,189.9 0 0 1 30.85,22.59 187.79,187.79 0 0 1 43.75,58.66 189.63,189.63 0 0 1 16.34,53.37 q 1.23,8.18 1.75,16.42 a 189,189 0 0 1 -72.95,160.94 l 5.26,9.21 c 43,-28.83 71.46,-39.84 95.44,-48.18 107,-37.24 204.4,-14.33 244.75,-1.76 14.8,4.61 31,11.19 34.85,13.15 l 12.27,-5.68 h -0.07 a 518.43,518.43 0 0 0 11.37,-74 q 1.13,-13.92 1.48,-27.93 a 523.13,523.13 0 0 0 -1.43,-54.51 z"
         class="cls-1" />
    </clipPath>
    <linearGradient
       gradientUnits="userSpaceOnUse"
       y2="109.7"
       x2="570.48999"
       y1="699.48999"
       x1="1083.4301"
       id="linear-gradient">
      <stop
         id="stop10"
         stop-opacity="0.9"
         stop-color="#1f1f1f"
         offset="0.12" />
      <stop
         id="stop12"
         stop-opacity="0.78"
         stop-color="#333"
         offset="0.38142982" />
      <stop
         id="stop14"
         stop-opacity="0.5"
         stop-color="#616161"
         offset="0.54044312" />
      <stop
         id="stop16"
         stop-opacity="0.29"
         stop-color="#a3a3a3"
         offset="0.66353154" />
      <stop
         id="stop18"
         stop-opacity="0.08"
         stop-color="#e6e6e6"
         offset="0.78661996" />
      <stop
         id="stop20"
         stop-opacity="0"
         stop-color="#fff"
         offset="0.89331001" />
    </linearGradient>
    <clipPath
       transform="translate(0 9)"
       id="clip-path-3">
      <path
         id="path23"
         d="m 1021.31,1007.36 q -9.12,4.95 -18.67,9 A 215.06,215.06 0 0 1 919,1033.27 v 0 A 217.05,217.05 0 0 1 879.66,1029.64 213.56,213.56 0 0 1 772.13,975 c -2.43,-2.29 -4.84,-4.67 -7.26,-7.19 v 0 l 1.82,-13.66 v 0 l 78.46,-57.61 c 26.35,-18.14 131.47,-108.7 165.18,6.32 7.65,26.15 10.78,42.3 11.21,58.13 0.01,0.34 0.19,27.29 -0.23,46.37 z"
         class="cls-1" />
    </clipPath>
    <linearGradient
       gradientUnits="userSpaceOnUse"
       y2="1062.85"
       x2="1137.73"
       y1="854.13"
       x1="717.90997"
       id="linear-gradient-2">
      <stop
         id="stop26"
         offset="0.213" />
      <stop
         id="stop28"
         stop-opacity="0"
         stop-color="#fff"
         offset="0.71" />
    </linearGradient>
  </defs>
  <title
     id="title33">quibi-logo</title>
  <g
     transform="matrix(0.63057128,0,0,0.63057128,-7.0737287e-4,-7.1760806)"
     id="Gradient">
    <path
       style="fill:#8401ff;fill-opacity:1"
       id="path35"
       transform="translate(0,9)"
       d="M 1058.73,670.49 A 203.74,203.74 0 0 0 1006,634.58 C 1058.5,421.23 968.13,190.03 769,72.93 526.12,-70 213.33,11.13 70.43,254.07 -72.47,497.01 9.11,809 251.58,952.71 c 167.19,99.08 381.76,88.61 515.07,1.47 4,4.52 8.22,8.92 12.71,13.14 82,77.15 210.95,73.24 288.1,-8.73 77.15,-81.97 73.24,-210.95 -8.73,-288.1 z M 682.05,613.83 A 199,199 0 0 1 409.31,684.55 C 314.46,628.76 282.8,506.65 338.59,411.81 394.38,316.97 516.49,285.3 611.33,341.09 706.17,396.88 737.84,519 682.05,613.83 Z"
       class="cls-2" />
    <g
       id="g45"
       clip-path="url(#clip-path)"
       class="cls-3">
      <g
         id="g39"
         clip-path="url(#clip-path-2)"
         class="cls-4">
        <rect
           y="0"
           style="fill:url(#linear-gradient)"
           id="rect37"
           height="681.08002"
           width="522.77002"
           x="509.85999"
           class="cls-5" />
      </g>
      <g
         id="g43"
         clip-path="url(#clip-path-3)"
         class="cls-6">
        <rect
           style="fill:url(#linear-gradient-2)"
           id="rect41"
           height="195.75999"
           width="276.62"
           y="846.75"
           x="761.64001"
           class="cls-7" />
      </g>
    </g>
  </g>
  <path
     style="fill:#414141;fill-opacity:1"
     class="cls-8"
     d="m 838.04008,320.4371 c 0,-70.42 56.26,-126.32004 127,-126.32004 70.74002,0 127.00002,55.90004 127.00002,126.32004 0,35.93 -14.88,67.87 -41,90 h 46.82 v 36.3 H 963.99008 c -70.05,0.01 -125.95,-55.89 -125.95,-126.3 z m 214.88002,0 a 87.84,87.84 0 1 0 -87.84002,87.47 87.37,87.37 0 0 0 87.84002,-87.47 z"
     id="path1061" />
  <path
     style="fill:#414141;fill-opacity:1"
     class="cls-8"
     d="m 1249.2901,446.7471 v -18.15 c -9.08,12.34 -26.5,21.06 -42.83,21.06 -45.38,0 -75.87,-31.95 -75.87,-79.5 v -87.84 h 37.39 v 86.39 c 0,26.5 15.61,43.2 40.29,43.2 24,0 41,-17.06 41,-41.75 v -87.84 h 37.38 v 164.43 z"
     id="path1063" />
  <path
     style="fill:#414141;fill-opacity:1"
     class="cls-8"
     d="m 1324.7801,236.9471 a 21.78,21.78 0 1 1 21.74,21.78 21.84,21.84 0 0 1 -21.74,-21.78 z m 3.27,45.37 h 37.38 v 164.43 h -37.38 z"
     id="path1065" />
  <path
     style="fill:#414141;fill-opacity:1"
     class="cls-8"
     d="m 1443.52,427.5071 v 19.24 h -37.3799 v -226.86 h 37.3799 v 82 c 12.71,-12.34 32.31,-20.69 48.28,-20.69 50.82,0 84.57,33.4 84.57,84.21 0,50.81 -33.75,84.22 -84.57,84.22 -15.66,0.03 -35.99,-9.41 -48.28,-22.12 z m -0.36,-63.15 c 0,26.86 21.78,49 47.91,49 26.13,0 47.55,-22.14 47.55,-49 0,-26.86 -21.41,-49 -47.91,-49 -26.19,-0.01 -47.6,21.8 -47.6,49 z"
     id="path1067" />
  <path
     style="fill:#414141;fill-opacity:1"
     class="cls-8"
     d="m 1608.99,236.9471 a 21.78,21.78 0 1 1 21.78,21.78 21.84,21.84 0 0 1 -21.78,-21.78 z m 3.26,45.37 h 37.39 v 164.43 h -37.39 z"
     id="path1069" />
</svg>
